<?xml version="1.0" encoding="utf-8"?>
<!-- Generator: Adobe Illustrator 21.0.0, SVG Export Plug-In . SVG Version: 6.00 Build 0)  -->
<svg version="1.1" id="Camada_1" xmlns="http://www.w3.org/2000/svg" xmlns:xlink="http://www.w3.org/1999/xlink" x="0px" y="0px"
	 viewBox="0 0 111 74" style="enable-background:new 0 0 111 74;" xml:space="preserve">
<style type="text/css">
	.st0{fill:#FFFFFF;}
	.st1{fill:#AACAD3;}
	.st2{fill:#C6D475;}
	.st3{fill:#E5AC4C;}
</style>
<g>
	<g>
		<g>
			<g>
				<path class="st0" d="M23.1,69.3L-0.4,10.5l22.1-6.7c4.3-0.7,8.4,0,12.2,2.3c3.7,2.2,6.3,5.4,7.7,9.4c1.1,3.4,1.2,6.8,0.3,10.1
					c-0.8,2.9-2.2,5.4-4.2,7.5c4.1,2.1,7,5.4,8.5,9.9c1.5,4.6,1.2,9.1-1,13.4c-2.2,4.3-5.6,7.3-10.2,8.8L23.1,69.3z M2.4,11.9
					l21.9,54.8l10-3.4c4.1-1.4,7.1-3.9,9-7.8c2-3.9,2.2-7.7,0.9-11.8c-1.5-4.5-4.4-7.5-8.7-9.3l-1.5-0.6l1.2-1.1
					c2.3-2.1,3.9-4.6,4.7-7.6c0.8-3,0.7-6-0.3-8.9c-1.2-3.5-3.5-6.3-6.8-8.3c-3.3-2-6.9-2.6-10.7-2L2.4,11.9z M30.3,50.8l-3.5-10.8
					l0.9-0.3c2.4-0.9,4.5-0.4,6.1,1.5c0.7,0.7,1.2,1.6,1.4,2.5c0.3,1.4,0.1,2.9-0.6,4.2c-0.8,1.3-1.9,2.2-3.4,2.7L30.3,50.8z
					 M29.5,41.4l2.2,6.7c0.5-0.3,0.9-0.7,1.3-1.3c0.5-0.9,0.6-1.7,0.4-2.7c-0.1-0.6-0.4-1.1-0.9-1.6C31.6,41.6,30.6,41.3,29.5,41.4z
					 M25.5,35l-4.2-16.4l0.8-0.3c3.3-1.4,6.2-0.7,8.4,2.1c0.8,1,1.4,2.2,1.6,3.6c0.6,3.3-0.2,6.1-2.6,8.5c-0.9,0.9-1.9,1.6-3,2.1
					L25.5,35z M23.8,19.9l3.1,12.2c0.4-0.3,0.9-0.6,1.2-1.1c1.9-1.9,2.5-4.1,2-6.7c-0.2-1.1-0.6-2-1.2-2.7
					C27.5,19.8,25.8,19.3,23.8,19.9z"/>
			</g>
			<path class="st1" d="M40.8,25.4c-0.9,3.2-2.5,5.9-5,8.1c4.6,1.9,7.7,5.2,9.3,9.9c1.5,4.3,1.1,8.5-0.9,12.6
				c-2.1,4.1-5.3,6.8-9.6,8.3c-0.9,0.3-1.7,0.6-2.6,0.9L23.7,68L1,11.2l20.8-6.3c4.1-0.7,7.9,0,11.5,2.1c3.5,2.1,5.9,5,7.2,8.8
				C41.6,19,41.7,22.2,40.8,25.4z M29.8,21c-2-2.4-4.4-3-7.2-1.8l3.7,14.4c1-0.4,1.9-1,2.7-1.9c2.1-2.1,2.9-4.7,2.3-7.6
				C30.9,22.9,30.5,21.9,29.8,21z M31,49.6c1.2-0.4,2.2-1.1,2.8-2.2c0.6-1.1,0.8-2.2,0.5-3.4c-0.2-0.8-0.6-1.5-1.2-2.1
				c-1.4-1.5-3-1.9-5-1.2L31,49.6z"/>
			<g>
				<path class="st0" d="M62.8,63.6c-0.3,0-0.6-0.1-0.9-0.1c-3.2-0.4-6.2-1.7-8.7-3.7l-0.3,1.6l-8.8-1.2L44,5.5l18-0.1l-3.8,23.9
					c2.6-0.9,5.3-1.2,8.1-0.8c2.7,0.4,5.3,1.3,7.6,2.9c2.9,1.9,5.1,4.5,6.4,7.6c1.4,3.1,1.8,6.3,1.4,9.6c-0.4,2.6-1.3,5.1-2.8,7.3
					c-1.8,2.8-4.3,4.9-7.4,6.3C68.7,63.4,65.7,63.9,62.8,63.6z M51.8,55.9l1.4,1.3c2.6,2.4,5.6,3.9,9,4.3c2.9,0.4,5.8,0,8.5-1.2
					c2.7-1.2,4.9-3,6.5-5.5c1.3-2,2.2-4.2,2.5-6.5c0.4-2.9,0-5.8-1.2-8.6c-1.2-2.8-3.1-5-5.7-6.8c-2.1-1.4-4.3-2.2-6.8-2.6
					c-3-0.4-5.9,0-8.6,1.3l-1.7,0.8l4-25.2L45.9,7.4l0.1,51.1l5.2,0.7L51.8,55.9z M60.9,56.6c-0.1,0-0.3,0-0.4,0
					c-1.1-0.1-2.1-0.5-3.1-1.2c-2.5-1.7-3.5-4-3.1-7c0.1-1.1,0.5-2.1,1.1-3c1.6-2.5,4-3.6,6.9-3.2c1.1,0.2,2.2,0.5,3.1,1.2
					c2.5,1.7,3.6,4,3.2,7c-0.1,1.1-0.5,2.1-1.2,3C65.8,55.8,63.6,56.8,60.9,56.6z M61.6,44.2c-2-0.2-3.5,0.6-4.7,2.3
					c-0.4,0.6-0.7,1.3-0.8,2.1c-0.3,2.2,0.5,3.8,2.3,5.1c0.7,0.5,1.4,0.7,2.2,0.8c2.2,0.3,3.8-0.4,5-2.2c0.5-0.7,0.7-1.4,0.8-2.2
					c0.3-2.2-0.5-3.8-2.3-5.1c-0.7-0.5-1.4-0.7-2.2-0.9C61.8,44.2,61.7,44.2,61.6,44.2z"/>
			</g>
			<path class="st2" d="M79.3,39.4c1.3,3,1.7,6,1.3,9.1c-0.3,2.5-1.2,4.8-2.6,6.9c-1.7,2.7-4.1,4.6-7,5.9c-2.9,1.3-5.9,1.7-9,1.3
				c-3.6-0.5-6.8-2-9.5-4.6l-0.4,2.4l-7-0.9L44.9,6.5l15.9-0.1l-3.9,24.5c2.9-1.3,6-1.8,9.2-1.4c2.6,0.3,5,1.3,7.2,2.7
				C76,34,78,36.4,79.3,39.4z M67.5,50.3c0.3-2.6-0.6-4.6-2.8-6c-0.8-0.5-1.7-0.9-2.7-1c-2.6-0.3-4.5,0.6-6,2.7
				c-0.5,0.8-0.8,1.6-0.9,2.5c-0.3,2.6,0.6,4.6,2.7,6c0.8,0.5,1.7,0.9,2.7,1c2.6,0.3,4.5-0.5,6-2.7C67.1,52.1,67.4,51.3,67.5,50.3z"
				/>
		</g>
		<g>
			<g>
				<path class="st0" d="M92.4,71.2C90,71,87.9,70,85.7,69c-2.7-1.3-5.4-2.6-9.2-2.9C75.8,66,74.9,66,74.1,66c-0.1,0-0.1,0-0.2,0h0
					c-0.4,0-0.9-0.2-1.3-0.7c-1.1-1.4-0.8-4.9-0.7-5.7c1.7-10,8.4-12.8,15.8-14.9c6.8-2,8.3-4,8.6-5c0.3-1,0.3-1.7,0.1-2.2
					c-0.2-0.5-0.7-0.8-1.5-1c-0.3-0.1-0.5-0.1-0.7-0.1c-0.8-0.1-1.9,0.1-2.5,2.4c-0.2,0.7-0.3,1.7-0.4,3l0,1.1l-1.1,0
					c-0.1,0-1.6,0-3.4-0.2c-4.6-0.4-5.8-1.4-6.3-2.1c-0.4-0.5-0.5-1.1-0.3-1.7c0.1-0.5,1.1-5.9,1.7-7.9c1.9-6.5,5.3-9.2,11.2-8.7
					c1.7,0.1,3.7,0.5,6.1,1.3c5,1.4,8,3.1,9.8,5.4c2,2.6,2.2,6.1,0.9,10.9c-2,6.9-6.6,11.1-13.9,12.4c-5.4,1-8.9,2.8-10.4,5.4
					c0.6,0.7,3.4,2.7,14.3,3.6c0.7,0.1,1.5,0.1,2.2,0.2l1.3,0.1l-0.4,1.3c-0.8,3-4.2,7.7-8.3,8.3C94,71.3,93.2,71.3,92.4,71.2z
					 M76.7,63.9c4.1,0.4,7.2,1.8,9.9,3.1c2.1,1,4,1.9,5.9,2.1c0.6,0.1,1.2,0,1.8-0.1c1.7-0.3,4.7-2.5,6-5.4c-0.3,0-0.6,0-0.8-0.1
					c-6.4-0.6-11.1-1.6-13.8-3c-2.3-1.2-2.6-2.3-2.6-2.8l0-0.3l0.1-0.3c1.6-3.6,5.7-6,12.2-7.2c6.4-1.2,10.4-4.7,12.1-10.8
					c1.2-4.1,1-7-0.5-9c-1.4-1.9-4-3.3-8.6-4.6c-2.3-0.7-4.2-1-5.7-1.2c-4.1-0.4-7.1,0.7-8.9,7.1c-0.5,1.9-1.6,7.4-1.6,7.7
					c0.2,0.2,1,0.8,4.6,1.1c0.8,0.1,1.6,0.1,2.2,0.1c0.1-1,0.2-1.8,0.4-2.5c1-3.5,3.2-4.1,4.8-4c0.4,0,0.8,0.1,1.2,0.2
					c1.4,0.4,2.3,1.1,2.8,2.2c0.5,1,0.5,2.3,0.1,3.8c-0.7,2.6-4,4.7-10.1,6.5c-8.2,2.4-12.9,5.2-14.2,13.2c-0.2,1.2-0.1,3.2,0.2,3.8
					C75.1,63.8,75.9,63.8,76.7,63.9z"/>
			</g>
			<path class="st3" d="M94.6,70.1c-6.4,1-10.6-5.5-20.5-5.2c-1.4,0-1.3-3.8-1.1-5.1c1.5-8.8,7-11.7,15-14.1
				c5.6-1.7,8.7-3.6,9.3-5.7c0.7-2.5,0-4-2.2-4.6c-2.3-0.7-3.9,0.3-4.6,3c-0.2,0.8-0.4,1.9-0.4,3.3c0,0-9.6,0.1-9-2.6
				c0,0,1.1-5.8,1.7-7.8c2.4-8.5,7.3-9.1,16-6.6c8.7,2.5,12.5,5.9,9.9,15c-1.9,6.5-6.2,10.3-13,11.6c-6.2,1.1-10,3.3-11.4,6.5
				c0,0,0.2,3.7,17.7,4.9C101.3,65.1,98.2,69.5,94.6,70.1z"/>
		</g>
	</g>
</g>
</svg>
