<?xml version="1.0" encoding="utf-8"?>
<!-- Generator: Adobe Illustrator 21.0.0, SVG Export Plug-In . SVG Version: 6.00 Build 0)  -->
<svg version="1.1" id="Camada_1" xmlns="http://www.w3.org/2000/svg" xmlns:xlink="http://www.w3.org/1999/xlink" x="0px" y="0px"
	 viewBox="0 0 60 75" style="enable-background:new 0 0 60 75;" xml:space="preserve">
<style type="text/css">
	.st0{fill:#C6D475;}
	.st1{fill:#FFFFFF;}
	.st2{fill:#AACAD3;}
	.st3{fill:#E5AC4C;}
	.st4{fill:none;stroke:#FFFFFF;stroke-width:4;stroke-linecap:round;stroke-linejoin:round;stroke-miterlimit:10;}
</style>
<g>
	<g>
		<polygon class="st0" points="26.2,59.5 3,62.1 0,35.3 23.2,32.8 		"/>
		<polygon class="st1" points="22.4,49.4 4.6,51.4 3.1,38.6 21,36.7 		"/>
	</g>
	<g>
		<polygon class="st2" points="33.4,59.5 56.6,62.1 59.6,35.3 36.4,32.8 		"/>
		<polygon class="st1" points="37.1,49.4 55,51.4 56.5,38.6 38.6,36.7 		"/>
	</g>
	<g>
		
			<rect x="17.1" y="30.4" transform="matrix(1 -6.325245e-03 6.325245e-03 1 -0.2769 0.1828)" class="st3" width="23.3" height="26.9"/>
		<rect x="19.8" y="34" transform="matrix(1 -6.325245e-03 6.325245e-03 1 -0.255 0.1827)" class="st1" width="18" height="12.8"/>
	</g>
</g>
<g>
	<path class="st0" d="M8.6,74.6H2.7c-0.6,0-1.1-0.5-1.1-1.1v-5.7c0-0.6,0.5-1.1,1.1-1.1h5.9c0.6,0,1.1,0.5,1.1,1.1v5.7
		C9.7,74.1,9.2,74.6,8.6,74.6z"/>
	<path class="st0" d="M10.4,70.4H0.9c-0.7,0-1.1-0.8-0.7-1.4l5.2-6.5c0.1-0.2,0.4-0.2,0.5,0l5.2,6.5C11.5,69.5,11.1,70.4,10.4,70.4z
		"/>
</g>
<g>
	<g>
		<path class="st3" d="M25,29.9H5c-2.8,0-5-2.2-5-5v-20c0-2.8,2.2-5,5-5h20c2.8,0,5,2.2,5,5v20C30,27.7,27.8,29.9,25,29.9z"/>
		<polyline class="st4" points="19.1,8.7 10,14.9 19.1,21.1 		"/>
	</g>
	<g>
		<path class="st3" d="M35-0.1h20c2.8,0,5,2.2,5,5v20c0,2.8-2.2,5-5,5H35c-2.8,0-5-2.2-5-5v-20C30,2.1,32.3-0.1,35-0.1z"/>
		<polyline class="st4" points="40.9,21.1 50.1,14.9 40.9,8.7 		"/>
	</g>
</g>
</svg>
